<svg id="Layer_1" data-name="Layer 1" xmlns="http://www.w3.org/2000/svg" viewBox="0 0 90 32"><title>Microsoft Store app badge logo - Brandlogos.net</title><rect x="0.5" y="0.5" width="89" height="31" rx="3.5" ry="3.5"/><path d="M354.56,375H346v8.56h8.56Z" transform="translate(-339 -368)" style="fill:#f25022"/><path d="M364,375h-8.56v8.56H364Z" transform="translate(-339 -368)" style="fill:#7fba00"/><path d="M354.56,384.44H346V393h8.56Z" transform="translate(-339 -368)" style="fill:#00a4ef"/><path d="M364,384.44h-8.56V393H364Z" transform="translate(-339 -368)" style="fill:#ffb900"/><path d="M373,380.61a3.66,3.66,0,0,1-.89.36,4,4,0,0,1-1,.12,2.65,2.65,0,0,1-2-.74,2.83,2.83,0,0,1-.73-2.08,2.91,2.91,0,0,1,.81-2.16,2.84,2.84,0,0,1,2.09-.81,3.67,3.67,0,0,1,.88.1,3.64,3.64,0,0,1,.81.3l-.29.57A2.89,2.89,0,0,0,372,376a3.19,3.19,0,0,0-.73-.08,2.11,2.11,0,0,0-1.55.6,2.27,2.27,0,0,0-.6,1.69,2.36,2.36,0,0,0,.53,1.67,2,2,0,0,0,1.5.56,2.64,2.64,0,0,0,.59-.06,2,2,0,0,0,.51-.19v-1.52h-1.22v-.63H373Zm4.59-1.5H374.7a1.54,1.54,0,0,0,.36,1,1.26,1.26,0,0,0,1,.36,2,2,0,0,0,.55-.08,2.13,2.13,0,0,0,.57-.28l.32.48a2.76,2.76,0,0,1-.71.34,2.7,2.7,0,0,1-.79.11,1.9,1.9,0,0,1-1.45-.55A2.19,2.19,0,0,1,374,379a2.31,2.31,0,0,1,.52-1.59,1.74,1.74,0,0,1,1.38-.61,1.55,1.55,0,0,1,1.25.52,2.16,2.16,0,0,1,.45,1.45Zm-.7-.55a1.32,1.32,0,0,0-.27-.88.91.91,0,0,0-.73-.31,1.06,1.06,0,0,0-.78.32,1.46,1.46,0,0,0-.39.87Zm3.73,2.39a1.66,1.66,0,0,1-.34.1,1.78,1.78,0,0,1-.37,0,1.06,1.06,0,0,1-.79-.29,1.18,1.18,0,0,1-.28-.86v-2.46h-.7v-.58h.7V376l.7-.22v1.16h1v.58h-1v2.39a.79.79,0,0,0,.13.5.46.46,0,0,0,.38.15l.23,0,.19-.07ZM384,376a.47.47,0,0,1-.34-.14.48.48,0,0,1,0-.67.5.5,0,0,1,.69,0,.47.47,0,0,1,0,.67A.47.47,0,0,1,384,376Zm.34,5h-.7v-4.1h.7Zm3.41-.05a1.65,1.65,0,0,1-.34.1,1.78,1.78,0,0,1-.37,0,1.06,1.06,0,0,1-.79-.29,1.18,1.18,0,0,1-.28-.86v-2.46h-.7v-.58h.7V376l.7-.22v1.16h1v.58h-1v2.39a.79.79,0,0,0,.13.5.46.46,0,0,0,.38.15l.23,0,.19-.07Zm5-5.32-.2-.05-.19,0a.63.63,0,0,0-.48.17.73.73,0,0,0-.16.5v.66h.94v.58h-.94V381h-.69v-3.52h-.69v-.58h.69v-.7a1.15,1.15,0,0,1,.36-.9,1.4,1.4,0,0,1,1-.32l.29,0,.27.07Zm2.75,1.86-.14,0h-.16a.89.89,0,0,0-.78.42,1.84,1.84,0,0,0-.29,1.06V381h-.7v-4.1h.7v.81h0a1.32,1.32,0,0,1,.43-.66,1.05,1.05,0,0,1,.67-.23h.21l.16,0Zm2.62,3.6a1.93,1.93,0,0,1-1.46-.57,2.15,2.15,0,0,1-.54-1.53,2.21,2.21,0,0,1,.56-1.61,2.06,2.06,0,0,1,1.54-.58,1.84,1.84,0,0,1,1.44.57,2.54,2.54,0,0,1,0,3.14A2,2,0,0,1,398.2,381.1Zm0-.58a1.16,1.16,0,0,0,1-.41,2.18,2.18,0,0,0,0-2.32,1.17,1.17,0,0,0-1-.41,1.23,1.23,0,0,0-1,.43,1.74,1.74,0,0,0-.36,1.16,1.66,1.66,0,0,0,.36,1.14A1.24,1.24,0,0,0,398.25,380.52Zm9,.48h-.7v-2.36a1.73,1.73,0,0,0-.21-1,.78.78,0,0,0-.69-.3.86.86,0,0,0-.7.38,1.45,1.45,0,0,0-.29.91V381h-.7v-2.43a1.44,1.44,0,0,0-.23-.89.81.81,0,0,0-.68-.3.86.86,0,0,0-.7.36,1.48,1.48,0,0,0-.27.93V381h-.7v-4.1h.7v.65h0a1.52,1.52,0,0,1,.54-.56,1.43,1.43,0,0,1,.74-.19,1.19,1.19,0,0,1,1.16.84,1.63,1.63,0,0,1,.57-.63,1.49,1.49,0,0,1,.79-.21,1.23,1.23,0,0,1,1,.42,1.94,1.94,0,0,1,.34,1.25Z" transform="translate(-339 -368)" style="fill:#fff"/><path d="M380.15,384.61a.83.83,0,0,1,.28-.64,1,1,0,0,1,1.32,0,.87.87,0,0,1,.27.63.81.81,0,0,1-.28.63,1,1,0,0,1-1.33,0A.88.88,0,0,1,380.15,384.61Zm1.69,8.39h-1.53v-6.51h1.53Z" transform="translate(-339 -368)" style="fill:#fff"/><path d="M386.5,391.89a2.22,2.22,0,0,0,.76-.15,3.05,3.05,0,0,0,.76-.42v1.43a3,3,0,0,1-.83.32,4.55,4.55,0,0,1-1,.11,3.11,3.11,0,0,1-3.24-3.23,3.69,3.69,0,0,1,.92-2.58,3.33,3.33,0,0,1,2.61-1,3.7,3.7,0,0,1,.87.11,3,3,0,0,1,.7.26v1.47a3,3,0,0,0-.73-.4,2.16,2.16,0,0,0-.76-.14,2,2,0,0,0-1.47.58,2.22,2.22,0,0,0-.55,1.59,2.11,2.11,0,0,0,.53,1.54A1.93,1.93,0,0,0,386.5,391.89Z" transform="translate(-339 -368)" style="fill:#fff"/><path d="M392.37,386.39l.33,0,.25.06V388a1.23,1.23,0,0,0-.35-.16,1.77,1.77,0,0,0-.56-.08,1.18,1.18,0,0,0-1,.47,2.3,2.3,0,0,0-.39,1.47V393h-1.53v-6.51h1.53v1h0a1.75,1.75,0,0,1,.64-.83A1.78,1.78,0,0,1,392.37,386.39Z" transform="translate(-339 -368)" style="fill:#fff"/><path d="M393,389.85a3.56,3.56,0,0,1,.91-2.56,3.37,3.37,0,0,1,2.53-.94,3.15,3.15,0,0,1,2.39.91,3.42,3.42,0,0,1,.86,2.45,3.48,3.48,0,0,1-.91,2.52,3.29,3.29,0,0,1-2.48.93,3.09,3.09,0,0,1-3.3-3.31Zm1.6-.05a2.34,2.34,0,0,0,.46,1.56,1.64,1.64,0,0,0,1.32.53,1.54,1.54,0,0,0,1.27-.53,2.52,2.52,0,0,0,.44-1.6,2.45,2.45,0,0,0-.45-1.59,1.56,1.56,0,0,0-1.27-.53,1.61,1.61,0,0,0-1.31.56A2.46,2.46,0,0,0,394.63,389.8Z" transform="translate(-339 -368)" style="fill:#fff"/><path d="M402,388.21a.67.67,0,0,0,.21.51,4,4,0,0,0,.92.47,3.12,3.12,0,0,1,1.29.83,1.72,1.72,0,0,1,.37,1.11,1.78,1.78,0,0,1-.71,1.48,3,3,0,0,1-1.91.55,4.18,4.18,0,0,1-.89-.1,4.25,4.25,0,0,1-.83-.25V391.3a3.57,3.57,0,0,0,.9.46,2.68,2.68,0,0,0,.87.17,1.62,1.62,0,0,0,.77-.14.52.52,0,0,0,.25-.49.66.66,0,0,0-.26-.53,3.7,3.7,0,0,0-1-.5,3,3,0,0,1-1.2-.8,1.77,1.77,0,0,1-.36-1.13,1.8,1.8,0,0,1,.7-1.45,2.76,2.76,0,0,1,1.82-.56,4.38,4.38,0,0,1,.77.07,3.14,3.14,0,0,1,.71.19v1.46a3.79,3.79,0,0,0-.71-.35,2.49,2.49,0,0,0-.8-.14,1.16,1.16,0,0,0-.68.17A.54.54,0,0,0,402,388.21Z" transform="translate(-339 -368)" style="fill:#fff"/><path d="M405.47,389.85a3.56,3.56,0,0,1,.91-2.56,3.37,3.37,0,0,1,2.53-.94,3.15,3.15,0,0,1,2.39.91,3.42,3.42,0,0,1,.86,2.45,3.48,3.48,0,0,1-.91,2.52,3.29,3.29,0,0,1-2.48.93,3.09,3.09,0,0,1-3.3-3.31Zm1.59-.05a2.34,2.34,0,0,0,.46,1.56,1.64,1.64,0,0,0,1.32.53,1.54,1.54,0,0,0,1.27-.53,2.52,2.52,0,0,0,.44-1.6,2.45,2.45,0,0,0-.45-1.59,1.56,1.56,0,0,0-1.27-.53,1.61,1.61,0,0,0-1.31.56A2.46,2.46,0,0,0,407.06,389.8Z" transform="translate(-339 -368)" style="fill:#fff"/><path d="M417.23,387.75v3.34a2.23,2.23,0,0,0,.48,1.56,1.88,1.88,0,0,0,1.46.51,3,3,0,0,0,.67-.07,1.65,1.65,0,0,0,.48-.15v-1.27a1.39,1.39,0,0,1-.33.15,1.07,1.07,0,0,1-.32.06.88.88,0,0,1-.69-.25,1.31,1.31,0,0,1-.22-.85v-3h1.56v-1.25h-1.55v-1.93l-1.54.47v1.47h-2.29v-.79a1.34,1.34,0,0,1,.26-.89.91.91,0,0,1,.74-.3,1.48,1.48,0,0,1,.44.06,1.45,1.45,0,0,1,.27.11v-1.32a1.89,1.89,0,0,0-.38-.08,3.51,3.51,0,0,0-.49,0,2.32,2.32,0,0,0-1.71.66,2.27,2.27,0,0,0-.67,1.68v.9h-1.09v1.25h1.09V393h1.55v-5.26Z" transform="translate(-339 -368)" style="fill:#fff"/><path d="M378.84,383.92V393h-1.58v-7.12h0L374.42,393h-1l-2.89-7.12h0V393H369v-9.09h2.26l2.62,6.74h0l2.76-6.74Z" transform="translate(-339 -368)" style="fill:#fff"/><rect x="0.5" y="0.5" width="89" height="31" rx="3.5" ry="3.5" style="fill:none;stroke:#000"/></svg>